<?xml version="1.0" encoding="UTF-8"?>
<svg height="1000" version="1.1" width="1000" xmlns="http://www.w3.org/2000/svg" xmlns:xlink="http://www.w3.org/1999/xlink">
 <path d="M0,0 l1000,0 l0,1000 l-1000,0 Z M0,0" fill="rgb(255,255,255)" transform="matrix(1,0,0,-1,0,1000)"/>
 <path d="M50,125.57 l40,0 l0,20 l-40,0 Z M50,125.57" fill="rgb(255,0,127)" transform="matrix(1,0,0,-1,0,1000)"/>
 <path d="M50,50 l64.67,0 l0,55.57 l-64.67,0 Z M50,50" fill="rgb(204,204,204)" transform="matrix(1,0,0,-1,0,1000)"/>
 <path d="M30,30 l104.67,0 l0,115.57 l-104.67,0 Z M30,30" fill="none" stroke="rgb(0,0,0)" stroke-width="1" transform="matrix(1,0,0,-1,0,1000)"/>
 <path d="M50,359.1 l40,0 l0,20 l-40,0 Z M50,359.1" fill="rgb(255,0,127)" transform="matrix(1,0,0,-1,0,1000)"/>
 <path d="M50,245 l127.06,0 l0,94.1 l-127.06,0 Z M50,245" fill="rgb(204,204,204)" transform="matrix(1,0,0,-1,0,1000)"/>
 <path d="M30,225 l167.06,0 l0,154.1 l-167.06,0 Z M30,225" fill="none" stroke="rgb(0,0,0)" stroke-width="1" transform="matrix(1,0,0,-1,0,1000)"/>
 <path d="M50,483.9 l40,0 l0,20 l-40,0 Z M50,483.9" fill="rgb(255,0,127)" transform="matrix(1,0,0,-1,0,1000)"/>
 <path d="M50,440 l75.35,0 l0,23.9 l-75.35,0 Z M50,440" fill="rgb(204,204,204)" transform="matrix(1,0,0,-1,0,1000)"/>
 <path d="M30,420 l115.35,0 l0,83.9 l-115.35,0 Z M30,420" fill="none" stroke="rgb(0,0,0)" stroke-width="1" transform="matrix(1,0,0,-1,0,1000)"/>
 <path d="M50,737.85 l40,0 l0,20 l-40,0 Z M50,737.85" fill="rgb(255,0,127)" transform="matrix(1,0,0,-1,0,1000)"/>
 <path d="M50,635 l75.84,0 l0,82.85 l-75.84,0 Z M50,635" fill="rgb(204,204,204)" transform="matrix(1,0,0,-1,0,1000)"/>
 <path d="M30,615 l115.84,0 l0,142.85 l-115.84,0 Z M30,615" fill="none" stroke="rgb(0,0,0)" stroke-width="1" transform="matrix(1,0,0,-1,0,1000)"/>
 <path d="M50,921.08 l40,0 l0,20 l-40,0 Z M50,921.08" fill="rgb(255,0,127)" transform="matrix(1,0,0,-1,0,1000)"/>
 <path d="M50,830 l71.16,0 l0,71.08 l-71.16,0 Z M50,830" fill="rgb(204,204,204)" transform="matrix(1,0,0,-1,0,1000)"/>
 <path d="M30,810 l111.16,0 l0,131.08 l-111.16,0 Z M30,810" fill="none" stroke="rgb(0,0,0)" stroke-width="1" transform="matrix(1,0,0,-1,0,1000)"/>
 <path d="M245,90.45 l40,0 l0,20 l-40,0 Z M245,90.45" fill="rgb(255,0,127)" transform="matrix(1,0,0,-1,0,1000)"/>
 <path d="M245,50 l64.08,0 l0,20.45 l-64.08,0 Z M245,50" fill="rgb(204,204,204)" transform="matrix(1,0,0,-1,0,1000)"/>
 <path d="M225,30 l104.08,0 l0,80.45 l-104.08,0 Z M225,30" fill="none" stroke="rgb(0,0,0)" stroke-width="1" transform="matrix(1,0,0,-1,0,1000)"/>
 <path d="M245,294.48 l40,0 l0,20 l-40,0 Z M245,294.48" fill="rgb(255,0,127)" transform="matrix(1,0,0,-1,0,1000)"/>
 <path d="M245,245 l114.64,0 l0,29.48 l-114.64,0 Z M245,245" fill="rgb(204,204,204)" transform="matrix(1,0,0,-1,0,1000)"/>
 <path d="M225,225 l154.64,0 l0,89.48 l-154.64,0 Z M225,225" fill="none" stroke="rgb(0,0,0)" stroke-width="1" transform="matrix(1,0,0,-1,0,1000)"/>
 <path d="M245,553.65 l40,0 l0,20 l-40,0 Z M245,553.65" fill="rgb(255,0,127)" transform="matrix(1,0,0,-1,0,1000)"/>
 <path d="M245,440 l85.03,0 l0,93.65 l-85.03,0 Z M245,440" fill="rgb(204,204,204)" transform="matrix(1,0,0,-1,0,1000)"/>
 <path d="M225,420 l125.03,0 l0,153.65 l-125.03,0 Z M225,420" fill="none" stroke="rgb(0,0,0)" stroke-width="1" transform="matrix(1,0,0,-1,0,1000)"/>
 <path d="M245,755.81 l40,0 l0,20 l-40,0 Z M245,755.81" fill="rgb(255,0,127)" transform="matrix(1,0,0,-1,0,1000)"/>
 <path d="M245,635 l106.11,0 l0,100.81 l-106.11,0 Z M245,635" fill="rgb(204,204,204)" transform="matrix(1,0,0,-1,0,1000)"/>
 <path d="M225,615 l146.11,0 l0,160.81 l-146.11,0 Z M225,615" fill="none" stroke="rgb(0,0,0)" stroke-width="1" transform="matrix(1,0,0,-1,0,1000)"/>
 <path d="M245,947.07 l40,0 l0,20 l-40,0 Z M245,947.07" fill="rgb(255,0,127)" transform="matrix(1,0,0,-1,0,1000)"/>
 <path d="M245,830 l136.37,0 l0,97.07 l-136.37,0 Z M245,830" fill="rgb(204,204,204)" transform="matrix(1,0,0,-1,0,1000)"/>
 <path d="M225,810 l176.37,0 l0,157.07 l-176.37,0 Z M225,810" fill="none" stroke="rgb(0,0,0)" stroke-width="1" transform="matrix(1,0,0,-1,0,1000)"/>
 <path d="M440,125.53 l40,0 l0,20 l-40,0 Z M440,125.53" fill="rgb(255,0,127)" transform="matrix(1,0,0,-1,0,1000)"/>
 <path d="M440,50 l95.27,0 l0,55.53 l-95.27,0 Z M440,50" fill="rgb(204,204,204)" transform="matrix(1,0,0,-1,0,1000)"/>
 <path d="M420,30 l135.27,0 l0,115.53 l-135.27,0 Z M420,30" fill="none" stroke="rgb(0,0,0)" stroke-width="1" transform="matrix(1,0,0,-1,0,1000)"/>
 <path d="M440,302.66 l40,0 l0,20 l-40,0 Z M440,302.66" fill="rgb(255,0,127)" transform="matrix(1,0,0,-1,0,1000)"/>
 <path d="M440,245 l68.08,0 l0,37.66 l-68.08,0 Z M440,245" fill="rgb(204,204,204)" transform="matrix(1,0,0,-1,0,1000)"/>
 <path d="M420,225 l108.08,0 l0,97.66 l-108.08,0 Z M420,225" fill="none" stroke="rgb(0,0,0)" stroke-width="1" transform="matrix(1,0,0,-1,0,1000)"/>
 <path d="M440,534.91 l40,0 l0,20 l-40,0 Z M440,534.91" fill="rgb(255,0,127)" transform="matrix(1,0,0,-1,0,1000)"/>
 <path d="M440,440 l58.92,0 l0,74.91 l-58.92,0 Z M440,440" fill="rgb(204,204,204)" transform="matrix(1,0,0,-1,0,1000)"/>
 <path d="M420,420 l98.92,0 l0,134.91 l-98.92,0 Z M420,420" fill="none" stroke="rgb(0,0,0)" stroke-width="1" transform="matrix(1,0,0,-1,0,1000)"/>
 <path d="M440,769.68 l40,0 l0,20 l-40,0 Z M440,769.68" fill="rgb(255,0,127)" transform="matrix(1,0,0,-1,0,1000)"/>
 <path d="M440,635 l102.55,0 l0,114.68 l-102.55,0 Z M440,635" fill="rgb(204,204,204)" transform="matrix(1,0,0,-1,0,1000)"/>
 <path d="M420,615 l142.55,0 l0,174.68 l-142.55,0 Z M420,615" fill="none" stroke="rgb(0,0,0)" stroke-width="1" transform="matrix(1,0,0,-1,0,1000)"/>
 <path d="M440,872.89 l40,0 l0,20 l-40,0 Z M440,872.89" fill="rgb(255,0,127)" transform="matrix(1,0,0,-1,0,1000)"/>
 <path d="M440,830 l126.89,0 l0,22.89 l-126.89,0 Z M440,830" fill="rgb(204,204,204)" transform="matrix(1,0,0,-1,0,1000)"/>
 <path d="M420,810 l166.89,0 l0,82.89 l-166.89,0 Z M420,810" fill="none" stroke="rgb(0,0,0)" stroke-width="1" transform="matrix(1,0,0,-1,0,1000)"/>
 <path d="M635,160.41 l40,0 l0,20 l-40,0 Z M635,160.41" fill="rgb(255,0,127)" transform="matrix(1,0,0,-1,0,1000)"/>
 <path d="M635,50 l101.07,0 l0,90.41 l-101.07,0 Z M635,50" fill="rgb(204,204,204)" transform="matrix(1,0,0,-1,0,1000)"/>
 <path d="M615,30 l141.07,0 l0,150.41 l-141.07,0 Z M615,30" fill="none" stroke="rgb(0,0,0)" stroke-width="1" transform="matrix(1,0,0,-1,0,1000)"/>
 <path d="M635,333.53 l40,0 l0,20 l-40,0 Z M635,333.53" fill="rgb(255,0,127)" transform="matrix(1,0,0,-1,0,1000)"/>
 <path d="M635,245 l77.73,0 l0,68.53 l-77.73,0 Z M635,245" fill="rgb(204,204,204)" transform="matrix(1,0,0,-1,0,1000)"/>
 <path d="M615,225 l117.73,0 l0,128.53 l-117.73,0 Z M615,225" fill="none" stroke="rgb(0,0,0)" stroke-width="1" transform="matrix(1,0,0,-1,0,1000)"/>
 <path d="M635,572.03 l40,0 l0,20 l-40,0 Z M635,572.03" fill="rgb(255,0,127)" transform="matrix(1,0,0,-1,0,1000)"/>
 <path d="M635,440 l86.09,0 l0,112.03 l-86.09,0 Z M635,440" fill="rgb(204,204,204)" transform="matrix(1,0,0,-1,0,1000)"/>
 <path d="M615,420 l126.09,0 l0,172.03 l-126.09,0 Z M615,420" fill="none" stroke="rgb(0,0,0)" stroke-width="1" transform="matrix(1,0,0,-1,0,1000)"/>
 <path d="M635,766.57 l40,0 l0,20 l-40,0 Z M635,766.57" fill="rgb(255,0,127)" transform="matrix(1,0,0,-1,0,1000)"/>
 <path d="M635,635 l88.5,0 l0,111.57 l-88.5,0 Z M635,635" fill="rgb(204,204,204)" transform="matrix(1,0,0,-1,0,1000)"/>
 <path d="M615,615 l128.5,0 l0,171.57 l-128.5,0 Z M615,615" fill="none" stroke="rgb(0,0,0)" stroke-width="1" transform="matrix(1,0,0,-1,0,1000)"/>
 <path d="M635,951.73 l40,0 l0,20 l-40,0 Z M635,951.73" fill="rgb(255,0,127)" transform="matrix(1,0,0,-1,0,1000)"/>
 <path d="M635,830 l91.1,0 l0,101.73 l-91.1,0 Z M635,830" fill="rgb(204,204,204)" transform="matrix(1,0,0,-1,0,1000)"/>
 <path d="M615,810 l131.1,0 l0,161.73 l-131.1,0 Z M615,810" fill="none" stroke="rgb(0,0,0)" stroke-width="1" transform="matrix(1,0,0,-1,0,1000)"/>
 <path d="M830,96.62 l40,0 l0,20 l-40,0 Z M830,96.62" fill="rgb(255,0,127)" transform="matrix(1,0,0,-1,0,1000)"/>
 <path d="M830,50 l84.18,0 l0,26.62 l-84.18,0 Z M830,50" fill="rgb(204,204,204)" transform="matrix(1,0,0,-1,0,1000)"/>
 <path d="M810,30 l124.18,0 l0,86.62 l-124.18,0 Z M810,30" fill="none" stroke="rgb(0,0,0)" stroke-width="1" transform="matrix(1,0,0,-1,0,1000)"/>
 <path d="M830,368.02 l40,0 l0,20 l-40,0 Z M830,368.02" fill="rgb(255,0,127)" transform="matrix(1,0,0,-1,0,1000)"/>
 <path d="M830,245 l79.52,0 l0,103.02 l-79.52,0 Z M830,245" fill="rgb(204,204,204)" transform="matrix(1,0,0,-1,0,1000)"/>
 <path d="M810,225 l119.52,0 l0,163.02 l-119.52,0 Z M810,225" fill="none" stroke="rgb(0,0,0)" stroke-width="1" transform="matrix(1,0,0,-1,0,1000)"/>
 <path d="M830,531.52 l40,0 l0,20 l-40,0 Z M830,531.52" fill="rgb(255,0,127)" transform="matrix(1,0,0,-1,0,1000)"/>
 <path d="M830,440 l69.85,0 l0,71.52 l-69.85,0 Z M830,440" fill="rgb(204,204,204)" transform="matrix(1,0,0,-1,0,1000)"/>
 <path d="M810,420 l109.85,0 l0,131.52 l-109.85,0 Z M810,420" fill="none" stroke="rgb(0,0,0)" stroke-width="1" transform="matrix(1,0,0,-1,0,1000)"/>
 <path d="M830,697.78 l40,0 l0,20 l-40,0 Z M830,697.78" fill="rgb(255,0,127)" transform="matrix(1,0,0,-1,0,1000)"/>
 <path d="M830,635 l105.73,0 l0,42.78 l-105.73,0 Z M830,635" fill="rgb(204,204,204)" transform="matrix(1,0,0,-1,0,1000)"/>
 <path d="M810,615 l145.73,0 l0,102.78 l-145.73,0 Z M810,615" fill="none" stroke="rgb(0,0,0)" stroke-width="1" transform="matrix(1,0,0,-1,0,1000)"/>
 <path d="M830,911.59 l40,0 l0,20 l-40,0 Z M830,911.59" fill="rgb(255,0,127)" transform="matrix(1,0,0,-1,0,1000)"/>
 <path d="M830,830 l59.72,0 l0,61.59 l-59.72,0 Z M830,830" fill="rgb(204,204,204)" transform="matrix(1,0,0,-1,0,1000)"/>
 <path d="M810,810 l99.72,0 l0,121.59 l-99.72,0 Z M810,810" fill="none" stroke="rgb(0,0,0)" stroke-width="1" transform="matrix(1,0,0,-1,0,1000)"/>
</svg>