<?xml version="1.0" encoding="UTF-8"?>
<!DOCTYPE svg PUBLIC "-//W3C//DTD SVG 1.1//EN" "http://www.w3.org/Graphics/SVG/1.1/DTD/svg11.dtd">
<svg version="1.1" xmlns="http://www.w3.org/2000/svg" xmlns:xlink="http://www.w3.org/1999/xlink" x="0" y="0" width="576" height="576" viewBox="0, 0, 576, 576">
  <g id="Layer_1">
    <text transform="matrix(1, 0, 0, 1, 285.948, 105.333)">
      <tspan x="-267.615" y="56" font-family="Upgrade-Medium" font-size="190" kerning="-0.95" fill="#FF7500">D</tspan>
      <tspan x="-140.315" y="56" font-family="Upgrade-Medium" font-size="190" fill="#FF7500">esign</tspan>
      <tspan x="267.615" y="56" font-family="Upgrade-Medium" font-size="190" kerning="0" fill="#FF7500"> </tspan>
    </text>
    <text transform="matrix(1, 0, 0, 1, 285.948, 256.333)">
      <tspan x="-267.615" y="56" font-family="Upgrade-Medium" font-size="190" kerning="-0.95" fill="#FF7500">D</tspan>
      <tspan x="-140.315" y="56" font-family="Upgrade-Medium" font-size="190" fill="#FF7500">esign</tspan>
      <tspan x="267.615" y="56" font-family="Upgrade-Medium" font-size="190" kerning="0" fill="#FF7500"> </tspan>
    </text>
    <text transform="matrix(1, 0, 0, 1, 271.608, 406.333)">
      <tspan x="-251.275" y="56" font-family="Upgrade-Medium" font-size="190" fill="#FF7500">.</tspan>
      <tspan x="-212.515" y="56" font-family="Upgrade-Medium" font-size="190" kerning="-0.76" fill="#FF7500">S</tspan>
      <tspan x="-118.275" y="56" font-family="Upgrade-Medium" font-size="190" fill="#FF7500">pac</tspan>
      <tspan x="157.035" y="56" font-family="Upgrade-Medium" font-size="190" kerning="0" fill="#FF7500">e</tspan>
    </text>
    <path d="M-3,403.5 C-3,403.5 -3,403.5 -3,403.5 C-3,403.5 -3,403.5 -3,403.5 C-3,403.5 -3,403.5 -3,403.5 C-3,403.5 -3,403.5 -3,403.5 z M-3,403.5" fill-opacity="0" stroke="#000100" stroke-width="0.25"/>
    <path d="M-3,403.5 L-3,403.5" fill-opacity="0" stroke="#000100" stroke-width="0.25"/>
    <path d="M-3,403.5 L-3,403.5" fill-opacity="0" stroke="#000100" stroke-width="0.25"/>
    <path d="M573,403.5 C573,403.5 573,403.5 573,403.5 C573,403.5 573,403.5 573,403.5 C573,403.5 573,403.5 573,403.5 C573,403.5 573,403.5 573,403.5 z M573,403.5" fill-opacity="0" stroke="#000100" stroke-width="0.25"/>
    <path d="M573,403.5 L573,403.5" fill-opacity="0" stroke="#000100" stroke-width="0.25"/>
    <path d="M573,403.5 L573,403.5" fill-opacity="0" stroke="#000100" stroke-width="0.25"/>
    <path d="M285,9 C285,9 285,9 285,9 C285,9 285,9 285,9 C285,9 285,9 285,9 C285,9 285,9 285,9 z M285,9" fill-opacity="0" stroke="#000100" stroke-width="0.25"/>
    <path d="M285,9 L285,9" fill-opacity="0" stroke="#000100" stroke-width="0.25"/>
    <path d="M285,9 L285,9" fill-opacity="0" stroke="#000100" stroke-width="0.25"/>
    <path d="M-11,9 L-3,9" fill-opacity="0" stroke="#000100" stroke-width="0.25"/>
    <path d="M-3,1 L-3,9" fill-opacity="0" stroke="#000100" stroke-width="0.25"/>
    <path d="M581,9 L573,9" fill-opacity="0" stroke="#000100" stroke-width="0.25"/>
    <path d="M573,1 L573,9" fill-opacity="0" stroke="#000100" stroke-width="0.25"/>
  </g>
</svg>
