<?xml version="1.0" encoding="UTF-8"?>
<svg height="1000" version="1.1" width="1000" xmlns="http://www.w3.org/2000/svg" xmlns:xlink="http://www.w3.org/1999/xlink">
 <path d="M0,0 l1000,0 l0,1000 l-1000,0 Z M0,0" fill="rgb(255,255,255)" transform="matrix(1,0,0,-1,0,1000)"/>
 <path d="M30,30 l117.89,0 l0,122.06 l-117.89,0 Z M30,30" fill="none" stroke="rgb(0,0,0)" stroke-width="1" transform="matrix(1,0,0,-1,0,1000)"/>
 <path d="M50,132.06 l40,0 l0,20 l-40,0 Z M50,132.06" fill="rgb(0,255,255)" stroke="rgb(0,0,0)" stroke-width="1" transform="matrix(1,0,0,-1,0,1000)"/>
 <path d="M50,50 l77.89,0 l0,62.06 l-77.89,0 Z M50,50" fill="rgb(204,204,204)" transform="matrix(1,0,0,-1,0,1000)"/>
 <path d="M30,225 l150.57,0 l0,105.17 l-150.57,0 Z M30,225" fill="none" stroke="rgb(0,0,0)" stroke-width="1" transform="matrix(1,0,0,-1,0,1000)"/>
 <path d="M50,310.17 l40,0 l0,20 l-40,0 Z M50,310.17" fill="rgb(0,255,255)" stroke="rgb(0,0,0)" stroke-width="1" transform="matrix(1,0,0,-1,0,1000)"/>
 <path d="M50,245 l110.57,0 l0,45.17 l-110.57,0 Z M50,245" fill="rgb(204,204,204)" transform="matrix(1,0,0,-1,0,1000)"/>
 <path d="M30,420 l134.45,0 l0,120.51 l-134.45,0 Z M30,420" fill="none" stroke="rgb(0,0,0)" stroke-width="1" transform="matrix(1,0,0,-1,0,1000)"/>
 <path d="M50,520.51 l40,0 l0,20 l-40,0 Z M50,520.51" fill="rgb(0,255,255)" stroke="rgb(0,0,0)" stroke-width="1" transform="matrix(1,0,0,-1,0,1000)"/>
 <path d="M50,440 l94.45,0 l0,60.51 l-94.45,0 Z M50,440" fill="rgb(204,204,204)" transform="matrix(1,0,0,-1,0,1000)"/>
 <path d="M30,615 l177.25,0 l0,125.17 l-177.25,0 Z M30,615" fill="none" stroke="rgb(0,0,0)" stroke-width="1" transform="matrix(1,0,0,-1,0,1000)"/>
 <path d="M50,720.17 l40,0 l0,20 l-40,0 Z M50,720.17" fill="rgb(0,255,255)" stroke="rgb(0,0,0)" stroke-width="1" transform="matrix(1,0,0,-1,0,1000)"/>
 <path d="M50,635 l137.25,0 l0,65.17 l-137.25,0 Z M50,635" fill="rgb(204,204,204)" transform="matrix(1,0,0,-1,0,1000)"/>
 <path d="M30,810 l103.56,0 l0,105.27 l-103.56,0 Z M30,810" fill="none" stroke="rgb(0,0,0)" stroke-width="1" transform="matrix(1,0,0,-1,0,1000)"/>
 <path d="M50,895.27 l40,0 l0,20 l-40,0 Z M50,895.27" fill="rgb(0,255,255)" stroke="rgb(0,0,0)" stroke-width="1" transform="matrix(1,0,0,-1,0,1000)"/>
 <path d="M50,830 l63.56,0 l0,45.27 l-63.56,0 Z M50,830" fill="rgb(204,204,204)" transform="matrix(1,0,0,-1,0,1000)"/>
 <path d="M225,30 l152.06,0 l0,159.71 l-152.06,0 Z M225,30" fill="none" stroke="rgb(0,0,0)" stroke-width="1" transform="matrix(1,0,0,-1,0,1000)"/>
 <path d="M245,169.71 l40,0 l0,20 l-40,0 Z M245,169.71" fill="rgb(0,255,255)" stroke="rgb(0,0,0)" stroke-width="1" transform="matrix(1,0,0,-1,0,1000)"/>
 <path d="M245,50 l112.06,0 l0,99.71 l-112.06,0 Z M245,50" fill="rgb(204,204,204)" transform="matrix(1,0,0,-1,0,1000)"/>
 <path d="M225,225 l176.9,0 l0,158.9 l-176.9,0 Z M225,225" fill="none" stroke="rgb(0,0,0)" stroke-width="1" transform="matrix(1,0,0,-1,0,1000)"/>
 <path d="M245,363.9 l40,0 l0,20 l-40,0 Z M245,363.9" fill="rgb(0,255,255)" stroke="rgb(0,0,0)" stroke-width="1" transform="matrix(1,0,0,-1,0,1000)"/>
 <path d="M245,245 l136.9,0 l0,98.9 l-136.9,0 Z M245,245" fill="rgb(204,204,204)" transform="matrix(1,0,0,-1,0,1000)"/>
 <path d="M225,420 l173.34,0 l0,126.15 l-173.34,0 Z M225,420" fill="none" stroke="rgb(0,0,0)" stroke-width="1" transform="matrix(1,0,0,-1,0,1000)"/>
 <path d="M245,526.15 l40,0 l0,20 l-40,0 Z M245,526.15" fill="rgb(0,255,255)" stroke="rgb(0,0,0)" stroke-width="1" transform="matrix(1,0,0,-1,0,1000)"/>
 <path d="M245,440 l133.34,0 l0,66.15 l-133.34,0 Z M245,440" fill="rgb(204,204,204)" transform="matrix(1,0,0,-1,0,1000)"/>
 <path d="M225,615 l125.54,0 l0,98.44 l-125.54,0 Z M225,615" fill="none" stroke="rgb(0,0,0)" stroke-width="1" transform="matrix(1,0,0,-1,0,1000)"/>
 <path d="M245,693.44 l40,0 l0,20 l-40,0 Z M245,693.44" fill="rgb(0,255,255)" stroke="rgb(0,0,0)" stroke-width="1" transform="matrix(1,0,0,-1,0,1000)"/>
 <path d="M245,635 l85.54,0 l0,38.44 l-85.54,0 Z M245,635" fill="rgb(204,204,204)" transform="matrix(1,0,0,-1,0,1000)"/>
 <path d="M225,810 l130.96,0 l0,89.05 l-130.96,0 Z M225,810" fill="none" stroke="rgb(0,0,0)" stroke-width="1" transform="matrix(1,0,0,-1,0,1000)"/>
 <path d="M245,879.05 l40,0 l0,20 l-40,0 Z M245,879.05" fill="rgb(0,255,255)" stroke="rgb(0,0,0)" stroke-width="1" transform="matrix(1,0,0,-1,0,1000)"/>
 <path d="M245,830 l90.96,0 l0,29.05 l-90.96,0 Z M245,830" fill="rgb(204,204,204)" transform="matrix(1,0,0,-1,0,1000)"/>
 <path d="M420,30 l146.44,0 l0,84.15 l-146.44,0 Z M420,30" fill="none" stroke="rgb(0,0,0)" stroke-width="1" transform="matrix(1,0,0,-1,0,1000)"/>
 <path d="M440,94.15 l40,0 l0,20 l-40,0 Z M440,94.15" fill="rgb(0,255,255)" stroke="rgb(0,0,0)" stroke-width="1" transform="matrix(1,0,0,-1,0,1000)"/>
 <path d="M440,50 l106.44,0 l0,24.15 l-106.44,0 Z M440,50" fill="rgb(204,204,204)" transform="matrix(1,0,0,-1,0,1000)"/>
 <path d="M420,225 l124.22,0 l0,162.28 l-124.22,0 Z M420,225" fill="none" stroke="rgb(0,0,0)" stroke-width="1" transform="matrix(1,0,0,-1,0,1000)"/>
 <path d="M440,367.28 l40,0 l0,20 l-40,0 Z M440,367.28" fill="rgb(0,255,255)" stroke="rgb(0,0,0)" stroke-width="1" transform="matrix(1,0,0,-1,0,1000)"/>
 <path d="M440,245 l84.22,0 l0,102.28 l-84.22,0 Z M440,245" fill="rgb(204,204,204)" transform="matrix(1,0,0,-1,0,1000)"/>
 <path d="M420,420 l170.59,0 l0,99.99 l-170.59,0 Z M420,420" fill="none" stroke="rgb(0,0,0)" stroke-width="1" transform="matrix(1,0,0,-1,0,1000)"/>
 <path d="M440,499.99 l40,0 l0,20 l-40,0 Z M440,499.99" fill="rgb(0,255,255)" stroke="rgb(0,0,0)" stroke-width="1" transform="matrix(1,0,0,-1,0,1000)"/>
 <path d="M440,440 l130.59,0 l0,39.99 l-130.59,0 Z M440,440" fill="rgb(204,204,204)" transform="matrix(1,0,0,-1,0,1000)"/>
 <path d="M420,615 l105.64,0 l0,114.0 l-105.64,0 Z M420,615" fill="none" stroke="rgb(0,0,0)" stroke-width="1" transform="matrix(1,0,0,-1,0,1000)"/>
 <path d="M440,709.0 l40,0 l0,20 l-40,0 Z M440,709.0" fill="rgb(0,255,255)" stroke="rgb(0,0,0)" stroke-width="1" transform="matrix(1,0,0,-1,0,1000)"/>
 <path d="M440,635 l65.64,0 l0,54.0 l-65.64,0 Z M440,635" fill="rgb(204,204,204)" transform="matrix(1,0,0,-1,0,1000)"/>
 <path d="M420,810 l140.0,0 l0,121.06 l-140.0,0 Z M420,810" fill="none" stroke="rgb(0,0,0)" stroke-width="1" transform="matrix(1,0,0,-1,0,1000)"/>
 <path d="M440,911.06 l40,0 l0,20 l-40,0 Z M440,911.06" fill="rgb(0,255,255)" stroke="rgb(0,0,0)" stroke-width="1" transform="matrix(1,0,0,-1,0,1000)"/>
 <path d="M440,830 l100.0,0 l0,61.06 l-100.0,0 Z M440,830" fill="rgb(204,204,204)" transform="matrix(1,0,0,-1,0,1000)"/>
 <path d="M615,30 l159.82,0 l0,144.76 l-159.82,0 Z M615,30" fill="none" stroke="rgb(0,0,0)" stroke-width="1" transform="matrix(1,0,0,-1,0,1000)"/>
 <path d="M635,154.76 l40,0 l0,20 l-40,0 Z M635,154.76" fill="rgb(0,255,255)" stroke="rgb(0,0,0)" stroke-width="1" transform="matrix(1,0,0,-1,0,1000)"/>
 <path d="M635,50 l119.82,0 l0,84.76 l-119.82,0 Z M635,50" fill="rgb(204,204,204)" transform="matrix(1,0,0,-1,0,1000)"/>
 <path d="M615,225 l98.43,0 l0,82.66 l-98.43,0 Z M615,225" fill="none" stroke="rgb(0,0,0)" stroke-width="1" transform="matrix(1,0,0,-1,0,1000)"/>
 <path d="M635,287.66 l40,0 l0,20 l-40,0 Z M635,287.66" fill="rgb(0,255,255)" stroke="rgb(0,0,0)" stroke-width="1" transform="matrix(1,0,0,-1,0,1000)"/>
 <path d="M635,245 l58.43,0 l0,22.66 l-58.43,0 Z M635,245" fill="rgb(204,204,204)" transform="matrix(1,0,0,-1,0,1000)"/>
 <path d="M615,420 l102.69,0 l0,151.55 l-102.69,0 Z M615,420" fill="none" stroke="rgb(0,0,0)" stroke-width="1" transform="matrix(1,0,0,-1,0,1000)"/>
 <path d="M635,551.55 l40,0 l0,20 l-40,0 Z M635,551.55" fill="rgb(0,255,255)" stroke="rgb(0,0,0)" stroke-width="1" transform="matrix(1,0,0,-1,0,1000)"/>
 <path d="M635,440 l62.69,0 l0,91.55 l-62.69,0 Z M635,440" fill="rgb(204,204,204)" transform="matrix(1,0,0,-1,0,1000)"/>
 <path d="M615,615 l101.44,0 l0,81.7 l-101.44,0 Z M615,615" fill="none" stroke="rgb(0,0,0)" stroke-width="1" transform="matrix(1,0,0,-1,0,1000)"/>
 <path d="M635,676.7 l40,0 l0,20 l-40,0 Z M635,676.7" fill="rgb(0,255,255)" stroke="rgb(0,0,0)" stroke-width="1" transform="matrix(1,0,0,-1,0,1000)"/>
 <path d="M635,635 l61.44,0 l0,21.7 l-61.44,0 Z M635,635" fill="rgb(204,204,204)" transform="matrix(1,0,0,-1,0,1000)"/>
 <path d="M615,810 l97.59,0 l0,78.08 l-97.59,0 Z M615,810" fill="none" stroke="rgb(0,0,0)" stroke-width="1" transform="matrix(1,0,0,-1,0,1000)"/>
 <path d="M635,868.08 l40,0 l0,20 l-40,0 Z M635,868.08" fill="rgb(0,255,255)" stroke="rgb(0,0,0)" stroke-width="1" transform="matrix(1,0,0,-1,0,1000)"/>
 <path d="M635,830 l57.59,0 l0,18.08 l-57.59,0 Z M635,830" fill="rgb(204,204,204)" transform="matrix(1,0,0,-1,0,1000)"/>
 <path d="M810,30 l148.16,0 l0,158.83 l-148.16,0 Z M810,30" fill="none" stroke="rgb(0,0,0)" stroke-width="1" transform="matrix(1,0,0,-1,0,1000)"/>
 <path d="M830,168.83 l40,0 l0,20 l-40,0 Z M830,168.83" fill="rgb(0,255,255)" stroke="rgb(0,0,0)" stroke-width="1" transform="matrix(1,0,0,-1,0,1000)"/>
 <path d="M830,50 l108.16,0 l0,98.83 l-108.16,0 Z M830,50" fill="rgb(204,204,204)" transform="matrix(1,0,0,-1,0,1000)"/>
 <path d="M810,225 l102.49,0 l0,117.68 l-102.49,0 Z M810,225" fill="none" stroke="rgb(0,0,0)" stroke-width="1" transform="matrix(1,0,0,-1,0,1000)"/>
 <path d="M830,322.68 l40,0 l0,20 l-40,0 Z M830,322.68" fill="rgb(0,255,255)" stroke="rgb(0,0,0)" stroke-width="1" transform="matrix(1,0,0,-1,0,1000)"/>
 <path d="M830,245 l62.49,0 l0,57.68 l-62.49,0 Z M830,245" fill="rgb(204,204,204)" transform="matrix(1,0,0,-1,0,1000)"/>
 <path d="M810,420 l130.61,0 l0,119.41 l-130.61,0 Z M810,420" fill="none" stroke="rgb(0,0,0)" stroke-width="1" transform="matrix(1,0,0,-1,0,1000)"/>
 <path d="M830,519.41 l40,0 l0,20 l-40,0 Z M830,519.41" fill="rgb(0,255,255)" stroke="rgb(0,0,0)" stroke-width="1" transform="matrix(1,0,0,-1,0,1000)"/>
 <path d="M830,440 l90.61,0 l0,59.41 l-90.61,0 Z M830,440" fill="rgb(204,204,204)" transform="matrix(1,0,0,-1,0,1000)"/>
 <path d="M810,615 l107.06,0 l0,107.41 l-107.06,0 Z M810,615" fill="none" stroke="rgb(0,0,0)" stroke-width="1" transform="matrix(1,0,0,-1,0,1000)"/>
 <path d="M830,702.41 l40,0 l0,20 l-40,0 Z M830,702.41" fill="rgb(0,255,255)" stroke="rgb(0,0,0)" stroke-width="1" transform="matrix(1,0,0,-1,0,1000)"/>
 <path d="M830,635 l67.06,0 l0,47.41 l-67.06,0 Z M830,635" fill="rgb(204,204,204)" transform="matrix(1,0,0,-1,0,1000)"/>
 <path d="M810,810 l110.54,0 l0,113.59 l-110.54,0 Z M810,810" fill="none" stroke="rgb(0,0,0)" stroke-width="1" transform="matrix(1,0,0,-1,0,1000)"/>
 <path d="M830,903.59 l40,0 l0,20 l-40,0 Z M830,903.59" fill="rgb(0,255,255)" stroke="rgb(0,0,0)" stroke-width="1" transform="matrix(1,0,0,-1,0,1000)"/>
 <path d="M830,830 l70.54,0 l0,53.59 l-70.54,0 Z M830,830" fill="rgb(204,204,204)" transform="matrix(1,0,0,-1,0,1000)"/>
</svg>