<?xml version="1.0" encoding="UTF-8"?>
<svg height="1302" version="1.1" width="892" xmlns="http://www.w3.org/2000/svg" xmlns:xlink="http://www.w3.org/1999/xlink">
 <text text-anchor="start" transform="matrix(1,0,0,1,60.0,-1165.4)">
  <tspan fill="rgb(0,0,0)" font-family="Roboto-Regular" font-size="32" x="0" y="1245.4">
   PageBot Theme “DesignDesign.Space”
  </tspan>
 </text>
 <path d="M60,1082 l100,0 l0,100 l-100,0 Z M60,1082" fill="rgb(0,0,0)" transform="matrix(1,0,0,-1,0,1302)"/>
 <path d="M60,1032 l100,0 l0,150 l-100,0 Z M60,1032" fill="none" stroke="rgb(0,0,0)" stroke-width="1" transform="matrix(1,0,0,-1,0,1302)"/>
 <text text-anchor="start" transform="matrix(1,0,0,1,78.09765625,-1004.0)">
  <tspan fill="rgb(0,0,0)" font-family="Roboto-Regular" font-size="16" stroke="rgb(0,0,0)" stroke-width="1" x="0" y="1244">
   black
  </tspan>
  <tspan fill="rgb(0,0,0)" font-family="Roboto-Regular" font-size="16" stroke="rgb(0,0,0)" stroke-width="1" x="0" y="1262">
   #000000
  </tspan>
 </text>
 <path d="M172,1082 l100,0 l0,100 l-100,0 Z M172,1082" fill="rgb(127,127,127)" transform="matrix(1,0,0,-1,0,1302)"/>
 <path d="M172,1032 l100,0 l0,150 l-100,0 Z M172,1032" fill="none" stroke="rgb(0,0,0)" stroke-width="1" transform="matrix(1,0,0,-1,0,1302)"/>
 <text text-anchor="start" transform="matrix(1,0,0,1,190.09765625,-1004.0)">
  <tspan fill="rgb(0,0,0)" font-family="Roboto-Regular" font-size="16" stroke="rgb(0,0,0)" stroke-width="1" x="0" y="1244">
   gray
  </tspan>
  <tspan fill="rgb(0,0,0)" font-family="Roboto-Regular" font-size="16" stroke="rgb(0,0,0)" stroke-width="1" x="0" y="1262">
   #808080
  </tspan>
 </text>
 <path d="M284,1082 l100,0 l0,100 l-100,0 Z M284,1082" fill="rgb(255,255,255)" transform="matrix(1,0,0,-1,0,1302)"/>
 <path d="M284,1032 l100,0 l0,150 l-100,0 Z M284,1032" fill="none" stroke="rgb(0,0,0)" stroke-width="1" transform="matrix(1,0,0,-1,0,1302)"/>
 <text text-anchor="start" transform="matrix(1,0,0,1,302.54296875,-1004.0)">
  <tspan fill="rgb(0,0,0)" font-family="Roboto-Regular" font-size="16" stroke="rgb(0,0,0)" stroke-width="1" x="0" y="1244">
   white
  </tspan>
  <tspan fill="rgb(0,0,0)" font-family="Roboto-Regular" font-size="16" stroke="rgb(0,0,0)" stroke-width="1" x="0" y="1262">
   #FFFFFF
  </tspan>
 </text>
 <path d="M396,1082 l100,0 l0,100 l-100,0 Z M396,1082" fill="rgb(255,255,0)" transform="matrix(1,0,0,-1,0,1302)"/>
 <path d="M396,1032 l100,0 l0,150 l-100,0 Z M396,1032" fill="none" stroke="rgb(0,0,0)" stroke-width="1" transform="matrix(1,0,0,-1,0,1302)"/>
 <text text-anchor="start" transform="matrix(1,0,0,1,403.88671875,-1004.0)">
  <tspan fill="rgb(0,0,0)" font-family="Roboto-Regular" font-size="16" stroke="rgb(0,0,0)" stroke-width="1" x="0" y="1244">
   background
  </tspan>
  <tspan fill="rgb(0,0,0)" font-family="Roboto-Regular" font-size="16" stroke="rgb(0,0,0)" stroke-width="1" x="0" y="1262">
   #FFFF00
  </tspan>
 </text>
 <path d="M508,1082 l100,0 l0,100 l-100,0 Z M508,1082" fill="rgb(252,177,128)" transform="matrix(1,0,0,-1,0,1302)"/>
 <path d="M508,1032 l100,0 l0,150 l-100,0 Z M508,1032" fill="none" stroke="rgb(0,0,0)" stroke-width="1" transform="matrix(1,0,0,-1,0,1302)"/>
 <text text-anchor="start" transform="matrix(1,0,0,1,524.66796875,-1004.0)">
  <tspan fill="rgb(0,0,0)" font-family="Roboto-Regular" font-size="16" stroke="rgb(0,0,0)" stroke-width="1" x="0" y="1244">
   logoLight
  </tspan>
  <tspan fill="rgb(0,0,0)" font-family="Roboto-Regular" font-size="16" stroke="rgb(0,0,0)" stroke-width="1" x="0" y="1262">
   #FCB180
  </tspan>
 </text>
 <path d="M620,1082 l100,0 l0,100 l-100,0 Z M620,1082" fill="rgb(249,99,2)" transform="matrix(1,0,0,-1,0,1302)"/>
 <path d="M620,1032 l100,0 l0,150 l-100,0 Z M620,1032" fill="none" stroke="rgb(0,0,0)" stroke-width="1" transform="matrix(1,0,0,-1,0,1302)"/>
 <text text-anchor="start" transform="matrix(1,0,0,1,638.171875,-1004.0)">
  <tspan fill="rgb(0,0,0)" font-family="Roboto-Regular" font-size="16" stroke="rgb(0,0,0)" stroke-width="1" x="0" y="1244">
   logo
  </tspan>
  <tspan fill="rgb(0,0,0)" font-family="Roboto-Regular" font-size="16" stroke="rgb(0,0,0)" stroke-width="1" x="0" y="1262">
   #F96302
  </tspan>
 </text>
 <path d="M732,1082 l100,0 l0,100 l-100,0 Z M732,1082" fill="rgb(124,49,1)" transform="matrix(1,0,0,-1,0,1302)"/>
 <path d="M732,1032 l100,0 l0,150 l-100,0 Z M732,1032" fill="none" stroke="rgb(0,0,0)" stroke-width="1" transform="matrix(1,0,0,-1,0,1302)"/>
 <text text-anchor="start" transform="matrix(1,0,0,1,749.38671875,-1004.0)">
  <tspan fill="rgb(0,0,0)" font-family="Roboto-Regular" font-size="16" stroke="rgb(0,0,0)" stroke-width="1" x="0" y="1244">
   logoDark
  </tspan>
  <tspan fill="rgb(0,0,0)" font-family="Roboto-Regular" font-size="16" stroke="rgb(0,0,0)" stroke-width="1" x="0" y="1262">
   #7C3201
  </tspan>
 </text>
 <path d="M60,920 l100,0 l0,100 l-100,0 Z M60,920" fill="rgb(231,231,231)" transform="matrix(1,0,0,-1,0,1302)"/>
 <path d="M60,870 l100,0 l0,150 l-100,0 Z M60,870" fill="none" stroke="rgb(0,0,0)" stroke-width="1" transform="matrix(1,0,0,-1,0,1302)"/>
 <text text-anchor="start" transform="matrix(1,0,0,1,77.9453125,-842.0)">
  <tspan fill="rgb(0,0,0)" font-family="Roboto-Regular" font-size="16" stroke="rgb(0,0,0)" stroke-width="1" x="0" y="1244">
   lightest0
  </tspan>
  <tspan fill="rgb(0,0,0)" font-family="Roboto-Regular" font-size="16" stroke="rgb(0,0,0)" stroke-width="1" x="0" y="1262">
   #E7E7E7
  </tspan>
 </text>
 <path d="M172,920 l100,0 l0,100 l-100,0 Z M172,920" fill="rgb(191,191,191)" transform="matrix(1,0,0,-1,0,1302)"/>
 <path d="M172,870 l100,0 l0,150 l-100,0 Z M172,870" fill="none" stroke="rgb(0,0,0)" stroke-width="1" transform="matrix(1,0,0,-1,0,1302)"/>
 <text text-anchor="start" transform="matrix(1,0,0,1,188.85546875,-842.0)">
  <tspan fill="rgb(0,0,0)" font-family="Roboto-Regular" font-size="16" stroke="rgb(0,0,0)" stroke-width="1" x="0" y="1244">
   light0
  </tspan>
  <tspan fill="rgb(0,0,0)" font-family="Roboto-Regular" font-size="16" stroke="rgb(0,0,0)" stroke-width="1" x="0" y="1262">
   #BFBFBF
  </tspan>
 </text>
 <path d="M284,920 l100,0 l0,100 l-100,0 Z M284,920" fill="rgb(143,143,143)" transform="matrix(1,0,0,-1,0,1302)"/>
 <path d="M284,870 l100,0 l0,150 l-100,0 Z M284,870" fill="none" stroke="rgb(0,0,0)" stroke-width="1" transform="matrix(1,0,0,-1,0,1302)"/>
 <text text-anchor="start" transform="matrix(1,0,0,1,302.3203125,-842.0)">
  <tspan fill="rgb(0,0,0)" font-family="Roboto-Regular" font-size="16" stroke="rgb(0,0,0)" stroke-width="1" x="0" y="1244">
   lighter0
  </tspan>
  <tspan fill="rgb(0,0,0)" font-family="Roboto-Regular" font-size="16" stroke="rgb(0,0,0)" stroke-width="1" x="0" y="1262">
   #8F8F8F
  </tspan>
 </text>
 <path d="M396,920 l100,0 l0,100 l-100,0 Z M396,920" fill="rgb(95,95,95)" transform="matrix(1,0,0,-1,0,1302)"/>
 <path d="M396,870 l100,0 l0,150 l-100,0 Z M396,870" fill="none" stroke="rgb(0,0,0)" stroke-width="1" transform="matrix(1,0,0,-1,0,1302)"/>
 <text text-anchor="start" transform="matrix(1,0,0,1,414.09765625,-842.0)">
  <tspan fill="rgb(0,0,0)" font-family="Roboto-Regular" font-size="16" stroke="rgb(0,0,0)" stroke-width="1" x="0" y="1244">
   base0
  </tspan>
  <tspan fill="rgb(0,0,0)" font-family="Roboto-Regular" font-size="16" stroke="rgb(0,0,0)" stroke-width="1" x="0" y="1262">
   #606060
  </tspan>
 </text>
 <path d="M508,920 l100,0 l0,100 l-100,0 Z M508,920" fill="rgb(66,66,66)" transform="matrix(1,0,0,-1,0,1302)"/>
 <path d="M508,870 l100,0 l0,150 l-100,0 Z M508,870" fill="none" stroke="rgb(0,0,0)" stroke-width="1" transform="matrix(1,0,0,-1,0,1302)"/>
 <text text-anchor="start" transform="matrix(1,0,0,1,526.09765625,-842.0)">
  <tspan fill="rgb(0,0,0)" font-family="Roboto-Regular" font-size="16" stroke="rgb(0,0,0)" stroke-width="1" x="0" y="1244">
   darker0
  </tspan>
  <tspan fill="rgb(0,0,0)" font-family="Roboto-Regular" font-size="16" stroke="rgb(0,0,0)" stroke-width="1" x="0" y="1262">
   #434343
  </tspan>
 </text>
 <path d="M620,920 l100,0 l0,100 l-100,0 Z M620,920" fill="rgb(38,38,38)" transform="matrix(1,0,0,-1,0,1302)"/>
 <path d="M620,870 l100,0 l0,150 l-100,0 Z M620,870" fill="none" stroke="rgb(0,0,0)" stroke-width="1" transform="matrix(1,0,0,-1,0,1302)"/>
 <text text-anchor="start" transform="matrix(1,0,0,1,638.09765625,-842.0)">
  <tspan fill="rgb(0,0,0)" font-family="Roboto-Regular" font-size="16" stroke="rgb(0,0,0)" stroke-width="1" x="0" y="1244">
   dark0
  </tspan>
  <tspan fill="rgb(0,0,0)" font-family="Roboto-Regular" font-size="16" stroke="rgb(0,0,0)" stroke-width="1" x="0" y="1262">
   #262626
  </tspan>
 </text>
 <path d="M732,920 l100,0 l0,100 l-100,0 Z M732,920" fill="rgb(14,14,14)" transform="matrix(1,0,0,-1,0,1302)"/>
 <path d="M732,870 l100,0 l0,150 l-100,0 Z M732,870" fill="none" stroke="rgb(0,0,0)" stroke-width="1" transform="matrix(1,0,0,-1,0,1302)"/>
 <text text-anchor="start" transform="matrix(1,0,0,1,749.9453125,-842.0)">
  <tspan fill="rgb(0,0,0)" font-family="Roboto-Regular" font-size="16" stroke="rgb(0,0,0)" stroke-width="1" x="0" y="1244">
   darkest0
  </tspan>
  <tspan fill="rgb(0,0,0)" font-family="Roboto-Regular" font-size="16" stroke="rgb(0,0,0)" stroke-width="1" x="0" y="1262">
   #0E0E0E
  </tspan>
 </text>
 <path d="M60,758 l100,0 l0,100 l-100,0 Z M60,758" fill="rgb(235,235,235)" transform="matrix(1,0,0,-1,0,1302)"/>
 <path d="M60,708 l100,0 l0,150 l-100,0 Z M60,708" fill="none" stroke="rgb(0,0,0)" stroke-width="1" transform="matrix(1,0,0,-1,0,1302)"/>
 <text text-anchor="start" transform="matrix(1,0,0,1,75.8125,-680.0)">
  <tspan fill="rgb(0,0,0)" font-family="Roboto-Regular" font-size="16" stroke="rgb(0,0,0)" stroke-width="1" x="0" y="1244">
   lightest1
  </tspan>
  <tspan fill="rgb(0,0,0)" font-family="Roboto-Regular" font-size="16" stroke="rgb(0,0,0)" stroke-width="1" x="0" y="1262">
   #ECECEC
  </tspan>
 </text>
 <path d="M172,758 l100,0 l0,100 l-100,0 Z M172,758" fill="rgb(204,204,204)" transform="matrix(1,0,0,-1,0,1302)"/>
 <path d="M172,708 l100,0 l0,150 l-100,0 Z M172,708" fill="none" stroke="rgb(0,0,0)" stroke-width="1" transform="matrix(1,0,0,-1,0,1302)"/>
 <text text-anchor="start" transform="matrix(1,0,0,1,185.83203125,-680.0)">
  <tspan fill="rgb(0,0,0)" font-family="Roboto-Regular" font-size="16" stroke="rgb(0,0,0)" stroke-width="1" x="0" y="1244">
   light1
  </tspan>
  <tspan fill="rgb(0,0,0)" font-family="Roboto-Regular" font-size="16" stroke="rgb(0,0,0)" stroke-width="1" x="0" y="1262">
   #CCCCCC
  </tspan>
 </text>
 <path d="M284,758 l100,0 l0,100 l-100,0 Z M284,758" fill="rgb(165,165,165)" transform="matrix(1,0,0,-1,0,1302)"/>
 <path d="M284,708 l100,0 l0,150 l-100,0 Z M284,708" fill="none" stroke="rgb(0,0,0)" stroke-width="1" transform="matrix(1,0,0,-1,0,1302)"/>
 <text text-anchor="start" transform="matrix(1,0,0,1,299.9296875,-680.0)">
  <tspan fill="rgb(0,0,0)" font-family="Roboto-Regular" font-size="16" stroke="rgb(0,0,0)" stroke-width="1" x="0" y="1244">
   lighter1
  </tspan>
  <tspan fill="rgb(0,0,0)" font-family="Roboto-Regular" font-size="16" stroke="rgb(0,0,0)" stroke-width="1" x="0" y="1262">
   #A6A6A6
  </tspan>
 </text>
 <path d="M396,758 l100,0 l0,100 l-100,0 Z M396,758" fill="rgb(127,127,127)" transform="matrix(1,0,0,-1,0,1302)"/>
 <path d="M396,708 l100,0 l0,150 l-100,0 Z M396,708" fill="none" stroke="rgb(0,0,0)" stroke-width="1" transform="matrix(1,0,0,-1,0,1302)"/>
 <text text-anchor="start" transform="matrix(1,0,0,1,414.09765625,-680.0)">
  <tspan fill="rgb(0,0,0)" font-family="Roboto-Regular" font-size="16" stroke="rgb(0,0,0)" stroke-width="1" x="0" y="1244">
   base1
  </tspan>
  <tspan fill="rgb(0,0,0)" font-family="Roboto-Regular" font-size="16" stroke="rgb(0,0,0)" stroke-width="1" x="0" y="1262">
   #808080
  </tspan>
 </text>
 <path d="M508,758 l100,0 l0,100 l-100,0 Z M508,758" fill="rgb(89,89,89)" transform="matrix(1,0,0,-1,0,1302)"/>
 <path d="M508,708 l100,0 l0,150 l-100,0 Z M508,708" fill="none" stroke="rgb(0,0,0)" stroke-width="1" transform="matrix(1,0,0,-1,0,1302)"/>
 <text text-anchor="start" transform="matrix(1,0,0,1,526.09765625,-680.0)">
  <tspan fill="rgb(0,0,0)" font-family="Roboto-Regular" font-size="16" stroke="rgb(0,0,0)" stroke-width="1" x="0" y="1244">
   darker1
  </tspan>
  <tspan fill="rgb(0,0,0)" font-family="Roboto-Regular" font-size="16" stroke="rgb(0,0,0)" stroke-width="1" x="0" y="1262">
   #595959
  </tspan>
 </text>
 <path d="M620,758 l100,0 l0,100 l-100,0 Z M620,758" fill="rgb(51,51,51)" transform="matrix(1,0,0,-1,0,1302)"/>
 <path d="M620,708 l100,0 l0,150 l-100,0 Z M620,708" fill="none" stroke="rgb(0,0,0)" stroke-width="1" transform="matrix(1,0,0,-1,0,1302)"/>
 <text text-anchor="start" transform="matrix(1,0,0,1,638.09765625,-680.0)">
  <tspan fill="rgb(0,0,0)" font-family="Roboto-Regular" font-size="16" stroke="rgb(0,0,0)" stroke-width="1" x="0" y="1244">
   dark1
  </tspan>
  <tspan fill="rgb(0,0,0)" font-family="Roboto-Regular" font-size="16" stroke="rgb(0,0,0)" stroke-width="1" x="0" y="1262">
   #333333
  </tspan>
 </text>
 <path d="M732,758 l100,0 l0,100 l-100,0 Z M732,758" fill="rgb(19,19,19)" transform="matrix(1,0,0,-1,0,1302)"/>
 <path d="M732,708 l100,0 l0,150 l-100,0 Z M732,708" fill="none" stroke="rgb(0,0,0)" stroke-width="1" transform="matrix(1,0,0,-1,0,1302)"/>
 <text text-anchor="start" transform="matrix(1,0,0,1,750.09765625,-680.0)">
  <tspan fill="rgb(0,0,0)" font-family="Roboto-Regular" font-size="16" stroke="rgb(0,0,0)" stroke-width="1" x="0" y="1244">
   darkest1
  </tspan>
  <tspan fill="rgb(0,0,0)" font-family="Roboto-Regular" font-size="16" stroke="rgb(0,0,0)" stroke-width="1" x="0" y="1262">
   #131313
  </tspan>
 </text>
 <path d="M60,596 l100,0 l0,100 l-100,0 Z M60,596" fill="rgb(242,242,244)" transform="matrix(1,0,0,-1,0,1302)"/>
 <path d="M60,546 l100,0 l0,150 l-100,0 Z M60,546" fill="none" stroke="rgb(0,0,0)" stroke-width="1" transform="matrix(1,0,0,-1,0,1302)"/>
 <text text-anchor="start" transform="matrix(1,0,0,1,78.3203125,-518.0)">
  <tspan fill="rgb(0,0,0)" font-family="Roboto-Regular" font-size="16" stroke="rgb(0,0,0)" stroke-width="1" x="0" y="1244">
   lightest2
  </tspan>
  <tspan fill="rgb(0,0,0)" font-family="Roboto-Regular" font-size="16" stroke="rgb(0,0,0)" stroke-width="1" x="0" y="1262">
   #F3F3F4
  </tspan>
 </text>
 <path d="M172,596 l100,0 l0,100 l-100,0 Z M172,596" fill="rgb(221,221,226)" transform="matrix(1,0,0,-1,0,1302)"/>
 <path d="M172,546 l100,0 l0,150 l-100,0 Z M172,546" fill="none" stroke="rgb(0,0,0)" stroke-width="1" transform="matrix(1,0,0,-1,0,1302)"/>
 <text text-anchor="start" transform="matrix(1,0,0,1,188.4375,-518.0)">
  <tspan fill="rgb(0,0,0)" font-family="Roboto-Regular" font-size="16" stroke="rgb(0,0,0)" stroke-width="1" x="0" y="1244">
   light2
  </tspan>
  <tspan fill="rgb(0,0,0)" font-family="Roboto-Regular" font-size="16" stroke="rgb(0,0,0)" stroke-width="1" x="0" y="1262">
   #DEDEE3
  </tspan>
 </text>
 <path d="M284,596 l100,0 l0,100 l-100,0 Z M284,596" fill="rgb(196,196,205)" transform="matrix(1,0,0,-1,0,1302)"/>
 <path d="M284,546 l100,0 l0,150 l-100,0 Z M284,546" fill="none" stroke="rgb(0,0,0)" stroke-width="1" transform="matrix(1,0,0,-1,0,1302)"/>
 <text text-anchor="start" transform="matrix(1,0,0,1,299.2109375,-518.0)">
  <tspan fill="rgb(0,0,0)" font-family="Roboto-Regular" font-size="16" stroke="rgb(0,0,0)" stroke-width="1" x="0" y="1244">
   lighter2
  </tspan>
  <tspan fill="rgb(0,0,0)" font-family="Roboto-Regular" font-size="16" stroke="rgb(0,0,0)" stroke-width="1" x="0" y="1262">
   #C5C5CD
  </tspan>
 </text>
 <path d="M396,596 l100,0 l0,100 l-100,0 Z M396,596" fill="rgb(172,172,184)" transform="matrix(1,0,0,-1,0,1302)"/>
 <path d="M396,546 l100,0 l0,150 l-100,0 Z M396,546" fill="none" stroke="rgb(0,0,0)" stroke-width="1" transform="matrix(1,0,0,-1,0,1302)"/>
 <text text-anchor="start" transform="matrix(1,0,0,1,410.7421875,-518.0)">
  <tspan fill="rgb(0,0,0)" font-family="Roboto-Regular" font-size="16" stroke="rgb(0,0,0)" stroke-width="1" x="0" y="1244">
   base2
  </tspan>
  <tspan fill="rgb(0,0,0)" font-family="Roboto-Regular" font-size="16" stroke="rgb(0,0,0)" stroke-width="1" x="0" y="1262">
   #ACACB8
  </tspan>
 </text>
 <path d="M508,596 l100,0 l0,100 l-100,0 Z M508,596" fill="rgb(120,120,128)" transform="matrix(1,0,0,-1,0,1302)"/>
 <path d="M508,546 l100,0 l0,150 l-100,0 Z M508,546" fill="none" stroke="rgb(0,0,0)" stroke-width="1" transform="matrix(1,0,0,-1,0,1302)"/>
 <text text-anchor="start" transform="matrix(1,0,0,1,526.09765625,-518.0)">
  <tspan fill="rgb(0,0,0)" font-family="Roboto-Regular" font-size="16" stroke="rgb(0,0,0)" stroke-width="1" x="0" y="1244">
   darker2
  </tspan>
  <tspan fill="rgb(0,0,0)" font-family="Roboto-Regular" font-size="16" stroke="rgb(0,0,0)" stroke-width="1" x="0" y="1262">
   #787881
  </tspan>
 </text>
 <path d="M620,596 l100,0 l0,100 l-100,0 Z M620,596" fill="rgb(68,68,73)" transform="matrix(1,0,0,-1,0,1302)"/>
 <path d="M620,546 l100,0 l0,150 l-100,0 Z M620,546" fill="none" stroke="rgb(0,0,0)" stroke-width="1" transform="matrix(1,0,0,-1,0,1302)"/>
 <text text-anchor="start" transform="matrix(1,0,0,1,637.375,-518.0)">
  <tspan fill="rgb(0,0,0)" font-family="Roboto-Regular" font-size="16" stroke="rgb(0,0,0)" stroke-width="1" x="0" y="1244">
   dark2
  </tspan>
  <tspan fill="rgb(0,0,0)" font-family="Roboto-Regular" font-size="16" stroke="rgb(0,0,0)" stroke-width="1" x="0" y="1262">
   #45454A
  </tspan>
 </text>
 <path d="M732,596 l100,0 l0,100 l-100,0 Z M732,596" fill="rgb(25,25,27)" transform="matrix(1,0,0,-1,0,1302)"/>
 <path d="M732,546 l100,0 l0,150 l-100,0 Z M732,546" fill="none" stroke="rgb(0,0,0)" stroke-width="1" transform="matrix(1,0,0,-1,0,1302)"/>
 <text text-anchor="start" transform="matrix(1,0,0,1,747.94140625,-518.0)">
  <tspan fill="rgb(0,0,0)" font-family="Roboto-Regular" font-size="16" stroke="rgb(0,0,0)" stroke-width="1" x="0" y="1244">
   darkest2
  </tspan>
  <tspan fill="rgb(0,0,0)" font-family="Roboto-Regular" font-size="16" stroke="rgb(0,0,0)" stroke-width="1" x="0" y="1262">
   #1A1A1C
  </tspan>
 </text>
 <path d="M60,434 l100,0 l0,100 l-100,0 Z M60,434" fill="rgb(254,231,217)" transform="matrix(1,0,0,-1,0,1302)"/>
 <path d="M60,384 l100,0 l0,150 l-100,0 Z M60,384" fill="none" stroke="rgb(0,0,0)" stroke-width="1" transform="matrix(1,0,0,-1,0,1302)"/>
 <text text-anchor="start" transform="matrix(1,0,0,1,77.31640625,-356.0)">
  <tspan fill="rgb(0,0,0)" font-family="Roboto-Regular" font-size="16" stroke="rgb(0,0,0)" stroke-width="1" x="0" y="1244">
   lightest3
  </tspan>
  <tspan fill="rgb(0,0,0)" font-family="Roboto-Regular" font-size="16" stroke="rgb(0,0,0)" stroke-width="1" x="0" y="1262">
   #FEE8D9
  </tspan>
 </text>
 <path d="M172,434 l100,0 l0,100 l-100,0 Z M172,434" fill="rgb(252,192,153)" transform="matrix(1,0,0,-1,0,1302)"/>
 <path d="M172,384 l100,0 l0,150 l-100,0 Z M172,384" fill="none" stroke="rgb(0,0,0)" stroke-width="1" transform="matrix(1,0,0,-1,0,1302)"/>
 <text text-anchor="start" transform="matrix(1,0,0,1,187.984375,-356.0)">
  <tspan fill="rgb(0,0,0)" font-family="Roboto-Regular" font-size="16" stroke="rgb(0,0,0)" stroke-width="1" x="0" y="1244">
   light3
  </tspan>
  <tspan fill="rgb(0,0,0)" font-family="Roboto-Regular" font-size="16" stroke="rgb(0,0,0)" stroke-width="1" x="0" y="1262">
   #FDC19A
  </tspan>
 </text>
 <path d="M284,434 l100,0 l0,100 l-100,0 Z M284,434" fill="rgb(250,145,77)" transform="matrix(1,0,0,-1,0,1302)"/>
 <path d="M284,384 l100,0 l0,150 l-100,0 Z M284,384" fill="none" stroke="rgb(0,0,0)" stroke-width="1" transform="matrix(1,0,0,-1,0,1302)"/>
 <text text-anchor="start" transform="matrix(1,0,0,1,301.6328125,-356.0)">
  <tspan fill="rgb(0,0,0)" font-family="Roboto-Regular" font-size="16" stroke="rgb(0,0,0)" stroke-width="1" x="0" y="1244">
   lighter3
  </tspan>
  <tspan fill="rgb(0,0,0)" font-family="Roboto-Regular" font-size="16" stroke="rgb(0,0,0)" stroke-width="1" x="0" y="1262">
   #FB924E
  </tspan>
 </text>
 <path d="M396,434 l100,0 l0,100 l-100,0 Z M396,434" fill="rgb(249,99,2)" transform="matrix(1,0,0,-1,0,1302)"/>
 <path d="M396,384 l100,0 l0,150 l-100,0 Z M396,384" fill="none" stroke="rgb(0,0,0)" stroke-width="1" transform="matrix(1,0,0,-1,0,1302)"/>
 <text text-anchor="start" transform="matrix(1,0,0,1,414.171875,-356.0)">
  <tspan fill="rgb(0,0,0)" font-family="Roboto-Regular" font-size="16" stroke="rgb(0,0,0)" stroke-width="1" x="0" y="1244">
   base3
  </tspan>
  <tspan fill="rgb(0,0,0)" font-family="Roboto-Regular" font-size="16" stroke="rgb(0,0,0)" stroke-width="1" x="0" y="1262">
   #F96302
  </tspan>
 </text>
 <path d="M508,434 l100,0 l0,100 l-100,0 Z M508,434" fill="rgb(174,69,1)" transform="matrix(1,0,0,-1,0,1302)"/>
 <path d="M508,384 l100,0 l0,150 l-100,0 Z M508,384" fill="none" stroke="rgb(0,0,0)" stroke-width="1" transform="matrix(1,0,0,-1,0,1302)"/>
 <text text-anchor="start" transform="matrix(1,0,0,1,525.32421875,-356.0)">
  <tspan fill="rgb(0,0,0)" font-family="Roboto-Regular" font-size="16" stroke="rgb(0,0,0)" stroke-width="1" x="0" y="1244">
   darker3
  </tspan>
  <tspan fill="rgb(0,0,0)" font-family="Roboto-Regular" font-size="16" stroke="rgb(0,0,0)" stroke-width="1" x="0" y="1262">
   #AE4501
  </tspan>
 </text>
 <path d="M620,434 l100,0 l0,100 l-100,0 Z M620,434" fill="rgb(99,39,0)" transform="matrix(1,0,0,-1,0,1302)"/>
 <path d="M620,384 l100,0 l0,150 l-100,0 Z M620,384" fill="none" stroke="rgb(0,0,0)" stroke-width="1" transform="matrix(1,0,0,-1,0,1302)"/>
 <text text-anchor="start" transform="matrix(1,0,0,1,638.09765625,-356.0)">
  <tspan fill="rgb(0,0,0)" font-family="Roboto-Regular" font-size="16" stroke="rgb(0,0,0)" stroke-width="1" x="0" y="1244">
   dark3
  </tspan>
  <tspan fill="rgb(0,0,0)" font-family="Roboto-Regular" font-size="16" stroke="rgb(0,0,0)" stroke-width="1" x="0" y="1262">
   #642801
  </tspan>
 </text>
 <path d="M732,434 l100,0 l0,100 l-100,0 Z M732,434" fill="rgb(37,14,0)" transform="matrix(1,0,0,-1,0,1302)"/>
 <path d="M732,384 l100,0 l0,150 l-100,0 Z M732,384" fill="none" stroke="rgb(0,0,0)" stroke-width="1" transform="matrix(1,0,0,-1,0,1302)"/>
 <text text-anchor="start" transform="matrix(1,0,0,1,750.171875,-356.0)">
  <tspan fill="rgb(0,0,0)" font-family="Roboto-Regular" font-size="16" stroke="rgb(0,0,0)" stroke-width="1" x="0" y="1244">
   darkest3
  </tspan>
  <tspan fill="rgb(0,0,0)" font-family="Roboto-Regular" font-size="16" stroke="rgb(0,0,0)" stroke-width="1" x="0" y="1262">
   #250F00
  </tspan>
 </text>
 <path d="M60,272 l100,0 l0,100 l-100,0 Z M60,272" fill="rgb(231,231,231)" transform="matrix(1,0,0,-1,0,1302)"/>
 <path d="M60,222 l100,0 l0,150 l-100,0 Z M60,222" fill="none" stroke="rgb(0,0,0)" stroke-width="1" transform="matrix(1,0,0,-1,0,1302)"/>
 <text text-anchor="start" transform="matrix(1,0,0,1,77.9453125,-194.0)">
  <tspan fill="rgb(0,0,0)" font-family="Roboto-Regular" font-size="16" stroke="rgb(0,0,0)" stroke-width="1" x="0" y="1244">
   lightest4
  </tspan>
  <tspan fill="rgb(0,0,0)" font-family="Roboto-Regular" font-size="16" stroke="rgb(0,0,0)" stroke-width="1" x="0" y="1262">
   #E7E7E7
  </tspan>
 </text>
 <path d="M172,272 l100,0 l0,100 l-100,0 Z M172,272" fill="rgb(191,191,191)" transform="matrix(1,0,0,-1,0,1302)"/>
 <path d="M172,222 l100,0 l0,150 l-100,0 Z M172,222" fill="none" stroke="rgb(0,0,0)" stroke-width="1" transform="matrix(1,0,0,-1,0,1302)"/>
 <text text-anchor="start" transform="matrix(1,0,0,1,188.85546875,-194.0)">
  <tspan fill="rgb(0,0,0)" font-family="Roboto-Regular" font-size="16" stroke="rgb(0,0,0)" stroke-width="1" x="0" y="1244">
   light4
  </tspan>
  <tspan fill="rgb(0,0,0)" font-family="Roboto-Regular" font-size="16" stroke="rgb(0,0,0)" stroke-width="1" x="0" y="1262">
   #BFBFBF
  </tspan>
 </text>
 <path d="M284,272 l100,0 l0,100 l-100,0 Z M284,272" fill="rgb(143,143,143)" transform="matrix(1,0,0,-1,0,1302)"/>
 <path d="M284,222 l100,0 l0,150 l-100,0 Z M284,222" fill="none" stroke="rgb(0,0,0)" stroke-width="1" transform="matrix(1,0,0,-1,0,1302)"/>
 <text text-anchor="start" transform="matrix(1,0,0,1,302.3203125,-194.0)">
  <tspan fill="rgb(0,0,0)" font-family="Roboto-Regular" font-size="16" stroke="rgb(0,0,0)" stroke-width="1" x="0" y="1244">
   lighter4
  </tspan>
  <tspan fill="rgb(0,0,0)" font-family="Roboto-Regular" font-size="16" stroke="rgb(0,0,0)" stroke-width="1" x="0" y="1262">
   #8F8F8F
  </tspan>
 </text>
 <path d="M396,272 l100,0 l0,100 l-100,0 Z M396,272" fill="rgb(95,95,95)" transform="matrix(1,0,0,-1,0,1302)"/>
 <path d="M396,222 l100,0 l0,150 l-100,0 Z M396,222" fill="none" stroke="rgb(0,0,0)" stroke-width="1" transform="matrix(1,0,0,-1,0,1302)"/>
 <text text-anchor="start" transform="matrix(1,0,0,1,414.09765625,-194.0)">
  <tspan fill="rgb(0,0,0)" font-family="Roboto-Regular" font-size="16" stroke="rgb(0,0,0)" stroke-width="1" x="0" y="1244">
   base4
  </tspan>
  <tspan fill="rgb(0,0,0)" font-family="Roboto-Regular" font-size="16" stroke="rgb(0,0,0)" stroke-width="1" x="0" y="1262">
   #606060
  </tspan>
 </text>
 <path d="M508,272 l100,0 l0,100 l-100,0 Z M508,272" fill="rgb(66,66,66)" transform="matrix(1,0,0,-1,0,1302)"/>
 <path d="M508,222 l100,0 l0,150 l-100,0 Z M508,222" fill="none" stroke="rgb(0,0,0)" stroke-width="1" transform="matrix(1,0,0,-1,0,1302)"/>
 <text text-anchor="start" transform="matrix(1,0,0,1,526.09765625,-194.0)">
  <tspan fill="rgb(0,0,0)" font-family="Roboto-Regular" font-size="16" stroke="rgb(0,0,0)" stroke-width="1" x="0" y="1244">
   darker4
  </tspan>
  <tspan fill="rgb(0,0,0)" font-family="Roboto-Regular" font-size="16" stroke="rgb(0,0,0)" stroke-width="1" x="0" y="1262">
   #434343
  </tspan>
 </text>
 <path d="M620,272 l100,0 l0,100 l-100,0 Z M620,272" fill="rgb(38,38,38)" transform="matrix(1,0,0,-1,0,1302)"/>
 <path d="M620,222 l100,0 l0,150 l-100,0 Z M620,222" fill="none" stroke="rgb(0,0,0)" stroke-width="1" transform="matrix(1,0,0,-1,0,1302)"/>
 <text text-anchor="start" transform="matrix(1,0,0,1,638.09765625,-194.0)">
  <tspan fill="rgb(0,0,0)" font-family="Roboto-Regular" font-size="16" stroke="rgb(0,0,0)" stroke-width="1" x="0" y="1244">
   dark4
  </tspan>
  <tspan fill="rgb(0,0,0)" font-family="Roboto-Regular" font-size="16" stroke="rgb(0,0,0)" stroke-width="1" x="0" y="1262">
   #262626
  </tspan>
 </text>
 <path d="M732,272 l100,0 l0,100 l-100,0 Z M732,272" fill="rgb(14,14,14)" transform="matrix(1,0,0,-1,0,1302)"/>
 <path d="M732,222 l100,0 l0,150 l-100,0 Z M732,222" fill="none" stroke="rgb(0,0,0)" stroke-width="1" transform="matrix(1,0,0,-1,0,1302)"/>
 <text text-anchor="start" transform="matrix(1,0,0,1,749.9453125,-194.0)">
  <tspan fill="rgb(0,0,0)" font-family="Roboto-Regular" font-size="16" stroke="rgb(0,0,0)" stroke-width="1" x="0" y="1244">
   darkest4
  </tspan>
  <tspan fill="rgb(0,0,0)" font-family="Roboto-Regular" font-size="16" stroke="rgb(0,0,0)" stroke-width="1" x="0" y="1262">
   #0E0E0E
  </tspan>
 </text>
 <path d="M60,110 l100,0 l0,100 l-100,0 Z M60,110" fill="rgb(250,250,250)" transform="matrix(1,0,0,-1,0,1302)"/>
 <path d="M60,60 l100,0 l0,150 l-100,0 Z M60,60" fill="none" stroke="rgb(0,0,0)" stroke-width="1" transform="matrix(1,0,0,-1,0,1302)"/>
 <text text-anchor="start" transform="matrix(1,0,0,1,78.14453125,-32.0)">
  <tspan fill="rgb(0,0,0)" font-family="Roboto-Regular" font-size="16" stroke="rgb(0,0,0)" stroke-width="1" x="0" y="1244">
   lightest5
  </tspan>
  <tspan fill="rgb(0,0,0)" font-family="Roboto-Regular" font-size="16" stroke="rgb(0,0,0)" stroke-width="1" x="0" y="1262">
   #FAFAFA
  </tspan>
 </text>
 <path d="M172,110 l100,0 l0,100 l-100,0 Z M172,110" fill="rgb(242,242,242)" transform="matrix(1,0,0,-1,0,1302)"/>
 <path d="M172,60 l100,0 l0,150 l-100,0 Z M172,60" fill="none" stroke="rgb(0,0,0)" stroke-width="1" transform="matrix(1,0,0,-1,0,1302)"/>
 <text text-anchor="start" transform="matrix(1,0,0,1,190.3203125,-32.0)">
  <tspan fill="rgb(0,0,0)" font-family="Roboto-Regular" font-size="16" stroke="rgb(0,0,0)" stroke-width="1" x="0" y="1244">
   light5
  </tspan>
  <tspan fill="rgb(0,0,0)" font-family="Roboto-Regular" font-size="16" stroke="rgb(0,0,0)" stroke-width="1" x="0" y="1262">
   #F2F2F2
  </tspan>
 </text>
 <path d="M284,110 l100,0 l0,100 l-100,0 Z M284,110" fill="rgb(232,232,232)" transform="matrix(1,0,0,-1,0,1302)"/>
 <path d="M284,60 l100,0 l0,150 l-100,0 Z M284,60" fill="none" stroke="rgb(0,0,0)" stroke-width="1" transform="matrix(1,0,0,-1,0,1302)"/>
 <text text-anchor="start" transform="matrix(1,0,0,1,301.9453125,-32.0)">
  <tspan fill="rgb(0,0,0)" font-family="Roboto-Regular" font-size="16" stroke="rgb(0,0,0)" stroke-width="1" x="0" y="1244">
   lighter5
  </tspan>
  <tspan fill="rgb(0,0,0)" font-family="Roboto-Regular" font-size="16" stroke="rgb(0,0,0)" stroke-width="1" x="0" y="1262">
   #E9E9E9
  </tspan>
 </text>
 <path d="M396,110 l100,0 l0,100 l-100,0 Z M396,110" fill="rgb(223,223,223)" transform="matrix(1,0,0,-1,0,1302)"/>
 <path d="M396,60 l100,0 l0,150 l-100,0 Z M396,60" fill="none" stroke="rgb(0,0,0)" stroke-width="1" transform="matrix(1,0,0,-1,0,1302)"/>
 <text text-anchor="start" transform="matrix(1,0,0,1,412.05859375,-32.0)">
  <tspan fill="rgb(0,0,0)" font-family="Roboto-Regular" font-size="16" stroke="rgb(0,0,0)" stroke-width="1" x="0" y="1244">
   base5
  </tspan>
  <tspan fill="rgb(0,0,0)" font-family="Roboto-Regular" font-size="16" stroke="rgb(0,0,0)" stroke-width="1" x="0" y="1262">
   #DFDFDF
  </tspan>
 </text>
 <path d="M508,110 l100,0 l0,100 l-100,0 Z M508,110" fill="rgb(156,156,156)" transform="matrix(1,0,0,-1,0,1302)"/>
 <path d="M508,60 l100,0 l0,150 l-100,0 Z M508,60" fill="none" stroke="rgb(0,0,0)" stroke-width="1" transform="matrix(1,0,0,-1,0,1302)"/>
 <text text-anchor="start" transform="matrix(1,0,0,1,523.96484375,-32.0)">
  <tspan fill="rgb(0,0,0)" font-family="Roboto-Regular" font-size="16" stroke="rgb(0,0,0)" stroke-width="1" x="0" y="1244">
   darker5
  </tspan>
  <tspan fill="rgb(0,0,0)" font-family="Roboto-Regular" font-size="16" stroke="rgb(0,0,0)" stroke-width="1" x="0" y="1262">
   #9C9C9C
  </tspan>
 </text>
 <path d="M620,110 l100,0 l0,100 l-100,0 Z M620,110" fill="rgb(89,89,89)" transform="matrix(1,0,0,-1,0,1302)"/>
 <path d="M620,60 l100,0 l0,150 l-100,0 Z M620,60" fill="none" stroke="rgb(0,0,0)" stroke-width="1" transform="matrix(1,0,0,-1,0,1302)"/>
 <text text-anchor="start" transform="matrix(1,0,0,1,638.09765625,-32.0)">
  <tspan fill="rgb(0,0,0)" font-family="Roboto-Regular" font-size="16" stroke="rgb(0,0,0)" stroke-width="1" x="0" y="1244">
   dark5
  </tspan>
  <tspan fill="rgb(0,0,0)" font-family="Roboto-Regular" font-size="16" stroke="rgb(0,0,0)" stroke-width="1" x="0" y="1262">
   #595959
  </tspan>
 </text>
 <path d="M732,110 l100,0 l0,100 l-100,0 Z M732,110" fill="rgb(33,33,33)" transform="matrix(1,0,0,-1,0,1302)"/>
 <path d="M732,60 l100,0 l0,150 l-100,0 Z M732,60" fill="none" stroke="rgb(0,0,0)" stroke-width="1" transform="matrix(1,0,0,-1,0,1302)"/>
 <text text-anchor="start" transform="matrix(1,0,0,1,750.09765625,-32.0)">
  <tspan fill="rgb(0,0,0)" font-family="Roboto-Regular" font-size="16" stroke="rgb(0,0,0)" stroke-width="1" x="0" y="1244">
   darkest5
  </tspan>
  <tspan fill="rgb(0,0,0)" font-family="Roboto-Regular" font-size="16" stroke="rgb(0,0,0)" stroke-width="1" x="0" y="1262">
   #212121
  </tspan>
 </text>
</svg>